# xmcd
#
# Track frame offsets:
#  150
#  13113
#  26523
#  37725
#  50446
#  60373
#  73009
#  81835
#  93517
#  107227
#  121438
#  134478
#  148104
#
# Disc length: 2160 seconds
#
# Revision: 0
# Processed by: cddbd v1.5.1PL0 Copyright (c) Steve Scherf et al.
# Submitted via: Collectorz.com Music Collector 6.9
#
DISCID=b1086e0d
DTITLE=Various Artist - Tumbling Tumbleweeds  (Record 7 of 7)
DYEAR=1900
DGENRE=Country
TTITLE0=Bob Wills and His Texas Playboys - San Antonio Rose
TTITLE1=Thompson, Hank - Wildwood Flower
TTITLE2=Bob Wills and His Texas Playboys - Panhandle Rag
TTITLE3=Danny Davis and The Nashville Brass - Sugarfoot Rag
TTITLE4=Bob Wills and His Texas Playboys - Across The Alley From The Alamo
TTITLE5=Pee Wee King - Steel Guitar Rag
TTITLE6=The Sons Of The Pioneers - Empty Saddles
TTITLE7=Arnold, Eddy - When It's Round-Up Time In Heaven
TTITLE8=Rex Allen - The Last Round-Up
TTITLE9=The Sons Of The Pioneers - Carry Me Back to The Lonne Prairie
TTITLE10=Jimmy Wakely - There's A Gold Mine In The Sky
TTITLE11=Ritter, Tex - Bury Me Not On The Lone Prairie
TTITLE12=Autry, Gene - A Cowboy's Heaven
EXTD=
EXTT0=
EXTT1=
EXTT2=
EXTT3=
EXTT4=
EXTT5=
EXTT6=
EXTT7=
EXTT8=
EXTT9=
EXTT10=
EXTT11=
EXTT12=
PLAYORDER=
